<mxfile host="app.diagrams.net" modified="2024-05-10T00:19:32.988Z" agent="Mozilla/5.0 (Windows NT 10.0; Win64; x64; rv:125.0) Gecko/20100101 Firefox/125.0" etag="VU_pTBgixDDrTFWZebui" version="24.3.1" type="device">
  <diagram name="Page-1" id="Ar5Fvcv2Qq2U9sIU4VO9">
    <mxGraphModel dx="683" dy="355" grid="1" gridSize="10" guides="1" tooltips="1" connect="1" arrows="1" fold="1" page="1" pageScale="1" pageWidth="827" pageHeight="1169" math="0" shadow="0">
      <root>
        <mxCell id="0" />
        <mxCell id="1" parent="0" />
        <mxCell id="LLFefHyKfc4qC6i3BY4V-9" value="" style="rounded=0;whiteSpace=wrap;html=1;fontFamily=Helvetica;fontSize=11;fontColor=default;labelBackgroundColor=default;fillColor=none;strokeColor=none;" parent="1" vertex="1">
          <mxGeometry x="143.5" y="158" width="609" height="245" as="geometry" />
        </mxCell>
        <mxCell id="LLFefHyKfc4qC6i3BY4V-1" value="Internet" style="ellipse;shape=cloud;whiteSpace=wrap;html=1;rounded=0;sketch=1;jiggle=2;curveFitting=1;strokeColor=#6c8ebf;align=center;verticalAlign=middle;fontFamily=Roboto;fontSize=9;labelBackgroundColor=none;fillColor=#dae8fc;fontSource=https%3A%2F%2Ffonts.googleapis.com%2Fcss%3Ffamily%3DRoboto;fontStyle=2;spacingTop=3;" parent="1" vertex="1">
          <mxGeometry x="529" y="201.25" width="121" height="94.5" as="geometry" />
        </mxCell>
        <mxCell id="LLFefHyKfc4qC6i3BY4V-3" value="&lt;div&gt;&lt;font data-font-src=&quot;https://fonts.googleapis.com/css?family=Roboto&quot; face=&quot;Roboto&quot;&gt;Blazor Hosting Server&lt;br&gt;&lt;/font&gt;&lt;/div&gt;" style="rounded=0;whiteSpace=wrap;html=1;fillColor=#fff2cc;strokeColor=#d6b656;dashed=1;align=center;verticalAlign=bottom;spacing=7;strokeWidth=1;sketch=1;curveFitting=1;jiggle=2;" parent="1" vertex="1">
          <mxGeometry x="400" y="160" width="120" height="240" as="geometry" />
        </mxCell>
        <mxCell id="fRoHSWvrRWju-dy-VI0X-31" value="&lt;div&gt;&lt;font data-font-src=&quot;https://fonts.googleapis.com/css?family=Roboto&quot; face=&quot;Roboto&quot;&gt;Client&lt;i&gt; &lt;/i&gt;Browser&lt;br&gt;&lt;/font&gt;&lt;/div&gt;" style="rounded=0;whiteSpace=wrap;html=1;fillColor=#fff2cc;strokeColor=#d6b656;dashed=1;align=center;verticalAlign=bottom;spacing=8;strokeWidth=1;sketch=1;curveFitting=1;jiggle=2;" parent="1" vertex="1">
          <mxGeometry x="147" y="208" width="113" height="152" as="geometry" />
        </mxCell>
        <mxCell id="fRoHSWvrRWju-dy-VI0X-19" value="Internet" style="ellipse;shape=cloud;whiteSpace=wrap;html=1;rounded=0;sketch=1;jiggle=2;curveFitting=1;strokeColor=#6c8ebf;align=center;verticalAlign=middle;fontFamily=Roboto;fontSize=9;labelBackgroundColor=none;fillColor=#dae8fc;fontSource=https%3A%2F%2Ffonts.googleapis.com%2Fcss%3Ffamily%3DRoboto;fontStyle=2;spacingTop=3;" parent="1" vertex="1">
          <mxGeometry x="276" y="200.25" width="120" height="94.5" as="geometry" />
        </mxCell>
        <mxCell id="fRoHSWvrRWju-dy-VI0X-2" value="Cache Service" style="rounded=0;whiteSpace=wrap;html=1;fontFamily=Roboto;sketch=1;jiggle=2;curveFitting=1;strokeColor=default;align=center;verticalAlign=middle;fontSize=11;fontColor=default;labelBackgroundColor=default;fontSource=https%3A%2F%2Ffonts.googleapis.com%2Fcss%3Ffamily%3DRoboto;" parent="1" vertex="1">
          <mxGeometry x="414" y="324.5" width="96" height="30" as="geometry" />
        </mxCell>
        <mxCell id="fRoHSWvrRWju-dy-VI0X-12" style="edgeStyle=orthogonalEdgeStyle;rounded=0;orthogonalLoop=1;jettySize=auto;html=1;entryX=1;entryY=0.75;entryDx=0;entryDy=0;fillColor=#d5e8d4;strokeColor=#82b366;sketch=1;jiggle=2;curveFitting=1;align=center;verticalAlign=middle;fontFamily=Helvetica;fontSize=11;fontColor=default;labelBackgroundColor=default;endArrow=classic;exitX=0;exitY=0.75;exitDx=0;exitDy=0;" parent="1" source="fRoHSWvrRWju-dy-VI0X-3" target="fRoHSWvrRWju-dy-VI0X-5" edge="1">
          <mxGeometry relative="1" as="geometry">
            <mxPoint x="620" y="240" as="sourcePoint" />
            <Array as="points" />
          </mxGeometry>
        </mxCell>
        <mxCell id="fRoHSWvrRWju-dy-VI0X-3" value="&lt;div&gt;API&lt;br&gt;&lt;i&gt;&lt;font style=&quot;font-size: 9px;&quot;&gt;backend server&lt;/font&gt;&lt;/i&gt;&lt;br&gt;&lt;/div&gt;" style="rounded=0;whiteSpace=wrap;html=1;fontFamily=Roboto;sketch=1;jiggle=2;curveFitting=1;strokeColor=default;align=center;verticalAlign=middle;fontSize=11;fontColor=default;labelBackgroundColor=default;fontSource=https%3A%2F%2Ffonts.googleapis.com%2Fcss%3Ffamily%3DRoboto;spacingRight=0;" parent="1" vertex="1">
          <mxGeometry x="660" y="224.5" width="90" height="50" as="geometry" />
        </mxCell>
        <mxCell id="LLFefHyKfc4qC6i3BY4V-4" style="edgeStyle=orthogonalEdgeStyle;rounded=0;sketch=1;jiggle=2;curveFitting=1;orthogonalLoop=1;jettySize=auto;html=1;exitX=0.25;exitY=1;exitDx=0;exitDy=0;entryX=0.25;entryY=0;entryDx=0;entryDy=0;strokeColor=default;align=center;verticalAlign=middle;fontFamily=Helvetica;fontSize=11;fontColor=default;labelBackgroundColor=default;endArrow=classic;" parent="1" source="fRoHSWvrRWju-dy-VI0X-4" target="fRoHSWvrRWju-dy-VI0X-5" edge="1">
          <mxGeometry relative="1" as="geometry" />
        </mxCell>
        <mxCell id="fRoHSWvrRWju-dy-VI0X-4" value="DAL Service" style="rounded=0;whiteSpace=wrap;html=1;fontFamily=Roboto;sketch=1;jiggle=2;curveFitting=1;strokeColor=default;align=center;verticalAlign=middle;fontSize=11;fontColor=default;labelBackgroundColor=default;fontSource=https%3A%2F%2Ffonts.googleapis.com%2Fcss%3Ffamily%3DRoboto;" parent="1" vertex="1">
          <mxGeometry x="414" y="172.25" width="96" height="30" as="geometry" />
        </mxCell>
        <mxCell id="fRoHSWvrRWju-dy-VI0X-11" style="edgeStyle=orthogonalEdgeStyle;rounded=0;orthogonalLoop=1;jettySize=auto;html=1;exitX=0.75;exitY=0;exitDx=0;exitDy=0;entryX=0.75;entryY=1;entryDx=0;entryDy=0;sketch=1;jiggle=2;curveFitting=1;strokeColor=#82b366;align=center;verticalAlign=middle;fontFamily=Helvetica;fontSize=11;fontColor=default;labelBackgroundColor=default;endArrow=classic;fillColor=#d5e8d4;" parent="1" source="fRoHSWvrRWju-dy-VI0X-5" target="fRoHSWvrRWju-dy-VI0X-4" edge="1">
          <mxGeometry relative="1" as="geometry" />
        </mxCell>
        <mxCell id="fRoHSWvrRWju-dy-VI0X-18" style="edgeStyle=orthogonalEdgeStyle;rounded=0;orthogonalLoop=1;jettySize=auto;html=1;exitX=0.75;exitY=1;exitDx=0;exitDy=0;entryX=0.75;entryY=0;entryDx=0;entryDy=0;sketch=1;jiggle=2;curveFitting=1;strokeColor=#82b366;align=center;verticalAlign=middle;fontFamily=Helvetica;fontSize=11;fontColor=default;labelBackgroundColor=default;endArrow=classic;fillColor=#d5e8d4;" parent="1" source="fRoHSWvrRWju-dy-VI0X-5" target="fRoHSWvrRWju-dy-VI0X-2" edge="1">
          <mxGeometry relative="1" as="geometry" />
        </mxCell>
        <mxCell id="fRoHSWvrRWju-dy-VI0X-44" style="edgeStyle=orthogonalEdgeStyle;rounded=0;orthogonalLoop=1;jettySize=auto;html=1;exitX=0.25;exitY=1;exitDx=0;exitDy=0;entryX=0.25;entryY=0;entryDx=0;entryDy=0;sketch=1;curveFitting=1;jiggle=2;" parent="1" source="fRoHSWvrRWju-dy-VI0X-5" target="fRoHSWvrRWju-dy-VI0X-2" edge="1">
          <mxGeometry relative="1" as="geometry" />
        </mxCell>
        <mxCell id="LLFefHyKfc4qC6i3BY4V-2" style="edgeStyle=orthogonalEdgeStyle;rounded=0;sketch=1;jiggle=2;curveFitting=1;orthogonalLoop=1;jettySize=auto;html=1;exitX=1;exitY=0.25;exitDx=0;exitDy=0;entryX=0;entryY=0.25;entryDx=0;entryDy=0;strokeColor=default;align=center;verticalAlign=middle;fontFamily=Helvetica;fontSize=11;fontColor=default;labelBackgroundColor=default;endArrow=classic;" parent="1" source="fRoHSWvrRWju-dy-VI0X-5" target="fRoHSWvrRWju-dy-VI0X-3" edge="1">
          <mxGeometry relative="1" as="geometry" />
        </mxCell>
        <mxCell id="fRoHSWvrRWju-dy-VI0X-5" value="Cache FaÃ§ade" style="rounded=0;whiteSpace=wrap;html=1;fontFamily=Roboto;sketch=1;jiggle=2;curveFitting=1;strokeColor=default;align=center;verticalAlign=middle;fontSize=11;fontColor=default;labelBackgroundColor=default;fontSource=https%3A%2F%2Ffonts.googleapis.com%2Fcss%3Ffamily%3DRoboto;" parent="1" vertex="1">
          <mxGeometry x="414" y="224.5" width="96" height="50" as="geometry" />
        </mxCell>
        <mxCell id="LLFefHyKfc4qC6i3BY4V-6" style="edgeStyle=orthogonalEdgeStyle;rounded=0;sketch=1;jiggle=2;curveFitting=1;orthogonalLoop=1;jettySize=auto;html=1;entryX=0;entryY=0.5;entryDx=0;entryDy=0;strokeColor=#9673a6;align=center;verticalAlign=middle;fontFamily=Helvetica;fontSize=11;fontColor=default;labelBackgroundColor=default;endArrow=classic;curved=1;startArrow=classic;startFill=1;fillColor=#e1d5e7;" parent="1" source="fRoHSWvrRWju-dy-VI0X-7" target="fRoHSWvrRWju-dy-VI0X-2" edge="1">
          <mxGeometry relative="1" as="geometry">
            <Array as="points">
              <mxPoint x="300" y="297" />
              <mxPoint x="300" y="270" />
              <mxPoint x="360" y="270" />
              <mxPoint x="360" y="340" />
            </Array>
          </mxGeometry>
        </mxCell>
        <mxCell id="fRoHSWvrRWju-dy-VI0X-7" value="Local Storage&lt;br&gt;&lt;font size=&quot;1&quot;&gt;&lt;i&gt;&lt;font style=&quot;font-size: 9px;&quot;&gt;browser&lt;/font&gt;&lt;/i&gt;&lt;/font&gt;" style="shape=cylinder3;whiteSpace=wrap;html=1;boundedLbl=1;backgroundOutline=1;size=9.14285714285711;fontFamily=Roboto;rounded=0;sketch=1;jiggle=2;curveFitting=1;strokeColor=default;align=center;verticalAlign=middle;fontSize=11;fontColor=default;labelBackgroundColor=default;fontSource=https%3A%2F%2Ffonts.googleapis.com%2Fcss%3Ffamily%3DRoboto;" parent="1" vertex="1">
          <mxGeometry x="160" y="263" width="90" height="67" as="geometry" />
        </mxCell>
        <mxCell id="fRoHSWvrRWju-dy-VI0X-34" value="" style="endArrow=classic;html=1;rounded=0;sketch=1;curveFitting=1;jiggle=2;fontFamily=Roboto;fontSource=https%3A%2F%2Ffonts.googleapis.com%2Fcss%3Ffamily%3DRoboto;align=left;spacingTop=0;" parent="1" edge="1">
          <mxGeometry width="50" height="50" relative="1" as="geometry">
            <mxPoint x="535" y="320.93" as="sourcePoint" />
            <mxPoint x="575" y="320.93" as="targetPoint" />
          </mxGeometry>
        </mxCell>
        <mxCell id="fRoHSWvrRWju-dy-VI0X-38" value="communication" style="edgeLabel;html=1;align=left;verticalAlign=middle;resizable=0;points=[];spacingLeft=45;spacingBottom=2;fontFamily=Roboto;fontSource=https%3A%2F%2Ffonts.googleapis.com%2Fcss%3Ffamily%3DRoboto;" parent="fRoHSWvrRWju-dy-VI0X-34" vertex="1" connectable="0">
          <mxGeometry x="-0.2" relative="1" as="geometry">
            <mxPoint x="-16" as="offset" />
          </mxGeometry>
        </mxCell>
        <mxCell id="fRoHSWvrRWju-dy-VI0X-35" value="UI" style="rounded=0;whiteSpace=wrap;html=1;fontFamily=Roboto;sketch=1;jiggle=2;curveFitting=1;strokeColor=default;align=center;verticalAlign=middle;fontSize=11;fontColor=default;labelBackgroundColor=default;fontSource=https%3A%2F%2Ffonts.googleapis.com%2Fcss%3Ffamily%3DRoboto;" parent="1" vertex="1">
          <mxGeometry x="160" y="220" width="90" height="30" as="geometry" />
        </mxCell>
        <mxCell id="fRoHSWvrRWju-dy-VI0X-39" value="" style="endArrow=classic;html=1;rounded=0;sketch=1;curveFitting=1;jiggle=2;fontFamily=Roboto;fontSource=https%3A%2F%2Ffonts.googleapis.com%2Fcss%3Ffamily%3DRoboto;align=left;spacingTop=0;fillColor=#f8cecc;strokeColor=#b85450;" parent="1" edge="1">
          <mxGeometry width="50" height="50" relative="1" as="geometry">
            <mxPoint x="535" y="337.93" as="sourcePoint" />
            <mxPoint x="575" y="337.93" as="targetPoint" />
          </mxGeometry>
        </mxCell>
        <mxCell id="fRoHSWvrRWju-dy-VI0X-40" value="cache miss/cache record expired" style="edgeLabel;html=1;align=left;verticalAlign=middle;resizable=0;points=[];spacingLeft=45;spacingBottom=2;fontFamily=Roboto;fontSource=https%3A%2F%2Ffonts.googleapis.com%2Fcss%3Ffamily%3DRoboto;" parent="fRoHSWvrRWju-dy-VI0X-39" vertex="1" connectable="0">
          <mxGeometry x="-0.2" relative="1" as="geometry">
            <mxPoint x="-16" as="offset" />
          </mxGeometry>
        </mxCell>
        <mxCell id="fRoHSWvrRWju-dy-VI0X-41" value="" style="endArrow=classic;html=1;rounded=0;sketch=1;curveFitting=1;jiggle=2;fontFamily=Roboto;fontSource=https%3A%2F%2Ffonts.googleapis.com%2Fcss%3Ffamily%3DRoboto;align=left;spacingTop=0;fillColor=#d5e8d4;strokeColor=#82b366;" parent="1" edge="1">
          <mxGeometry width="50" height="50" relative="1" as="geometry">
            <mxPoint x="535" y="354.93" as="sourcePoint" />
            <mxPoint x="575" y="353.93" as="targetPoint" />
          </mxGeometry>
        </mxCell>
        <mxCell id="fRoHSWvrRWju-dy-VI0X-42" value="requested data" style="edgeLabel;html=1;align=left;verticalAlign=middle;resizable=0;points=[];spacingLeft=45;spacingBottom=2;fontFamily=Roboto;fontSource=https%3A%2F%2Ffonts.googleapis.com%2Fcss%3Ffamily%3DRoboto;" parent="fRoHSWvrRWju-dy-VI0X-41" vertex="1" connectable="0">
          <mxGeometry x="-0.2" relative="1" as="geometry">
            <mxPoint x="-16" as="offset" />
          </mxGeometry>
        </mxCell>
        <mxCell id="fRoHSWvrRWju-dy-VI0X-43" style="edgeStyle=orthogonalEdgeStyle;rounded=0;orthogonalLoop=1;jettySize=auto;html=1;exitX=0.5;exitY=0;exitDx=0;exitDy=0;entryX=0.5;entryY=1;entryDx=0;entryDy=0;sketch=1;jiggle=2;curveFitting=1;strokeColor=#b85450;align=center;verticalAlign=middle;fontFamily=Helvetica;fontSize=11;fontColor=default;labelBackgroundColor=default;endArrow=classic;fillColor=#f8cecc;" parent="1" source="fRoHSWvrRWju-dy-VI0X-2" target="fRoHSWvrRWju-dy-VI0X-5" edge="1">
          <mxGeometry relative="1" as="geometry" />
        </mxCell>
        <mxCell id="LLFefHyKfc4qC6i3BY4V-5" style="edgeStyle=orthogonalEdgeStyle;rounded=0;sketch=1;jiggle=2;curveFitting=1;orthogonalLoop=1;jettySize=auto;html=1;exitX=1;exitY=0.5;exitDx=0;exitDy=0;entryX=0;entryY=0.5;entryDx=0;entryDy=0;strokeColor=#9673a6;align=center;verticalAlign=middle;fontFamily=Helvetica;fontSize=11;fontColor=default;labelBackgroundColor=default;endArrow=classic;curved=1;startArrow=classic;startFill=1;fillColor=#e1d5e7;" parent="1" source="fRoHSWvrRWju-dy-VI0X-35" target="fRoHSWvrRWju-dy-VI0X-4" edge="1">
          <mxGeometry relative="1" as="geometry">
            <Array as="points">
              <mxPoint x="360" y="235" />
              <mxPoint x="360" y="187" />
            </Array>
          </mxGeometry>
        </mxCell>
        <mxCell id="LLFefHyKfc4qC6i3BY4V-7" value="" style="endArrow=classic;html=1;rounded=0;sketch=1;curveFitting=1;jiggle=2;fontFamily=Roboto;fontSource=https%3A%2F%2Ffonts.googleapis.com%2Fcss%3Ffamily%3DRoboto;align=left;spacingTop=0;fillColor=#e1d5e7;strokeColor=#9673a6;" parent="1" edge="1">
          <mxGeometry width="50" height="50" relative="1" as="geometry">
            <mxPoint x="535" y="371.93" as="sourcePoint" />
            <mxPoint x="575" y="369.93" as="targetPoint" />
          </mxGeometry>
        </mxCell>
        <mxCell id="LLFefHyKfc4qC6i3BY4V-8" value="SignalR communication" style="edgeLabel;html=1;align=left;verticalAlign=middle;resizable=0;points=[];spacingLeft=45;spacingBottom=2;fontFamily=Roboto;fontSource=https%3A%2F%2Ffonts.googleapis.com%2Fcss%3Ffamily%3DRoboto;" parent="LLFefHyKfc4qC6i3BY4V-7" vertex="1" connectable="0">
          <mxGeometry x="-0.2" relative="1" as="geometry">
            <mxPoint x="-16" as="offset" />
          </mxGeometry>
        </mxCell>
      </root>
    </mxGraphModel>
  </diagram>
</mxfile>
